<?xml version="1.0" encoding="utf-8"?>
<svg xmlns="http://www.w3.org/2000/svg" xmlns:xlink="http://www.w3.org/1999/xlink" version= "1.1" width="452px" height="452px" viewBox="333 461 452 452">
<g id="layer1">
<g style="fill:rgb(255,255,255); fill-opacity:1.0; stroke-linejoin: miter">
<path d="M544.0,576.0L543.12366,589.0267Q536.8931,628.39417,506.66275,651.9972Q476.22314,675.5812,434.9734,671.12366Q395.6058,664.8932,372.0028,634.6627Q364.44016,624.8909,359.54416,613.36755L355.4292,601.5206Q352.03812,589.29297,352.0,576.0Q353.02942,535.20605,380.11774,508.11774Q407.20605,481.02945,448.00003,480.0Q488.79395,481.02945,515.88226,508.11774Q542.9706,535.20605,544.0,576.0"/>
</g>
<g style="fill:rgb(255,255,255); fill-opacity:1.0; stroke-linejoin: miter">
<path d="M544.0,800.0001L543.12366,813.02673Q536.8932,852.39417,506.66278,875.9972Q476.2232,899.5812,434.9734,895.12366Q395.6058,888.8931,372.0028,858.6628Q364.44016,848.891,359.54416,837.36755L355.4292,825.5207Q352.03812,813.293,352.0,800.0001Q353.02942,759.2061,380.11774,732.1178Q407.20605,705.0294,448.00003,704.0Q488.79395,705.0294,515.88226,732.1178Q542.9706,759.2061,544.0,800.0001"/>
</g>
<g style="fill:rgb(255,255,255); fill-opacity:1.0; stroke-linejoin: miter">
<path d="M768.0,576.0L767.12366,589.0267Q760.8932,628.39417,730.6628,651.9972Q700.2232,675.5812,658.9734,671.12366Q619.60583,664.8932,596.0028,634.6627Q588.4401,624.8909,583.5441,613.36755L579.4292,601.5206Q576.03815,589.29297,576.0,576.0Q577.0294,535.20605,604.11774,508.11774Q631.20605,481.02945,672.0,480.0Q712.794,481.02945,739.88226,508.11774Q766.9706,535.20605,768.0,576.0"/>
</g>
<g style="fill:rgb(255,255,255); fill-opacity:1.0; stroke-linejoin: miter">
<path d="M768.0,800.0001L767.12366,813.02673Q760.8932,852.39417,730.6628,875.9972Q700.2232,899.5812,658.9734,895.12366Q619.60583,888.8931,596.0028,858.6628Q588.4401,848.891,583.5441,837.36755L579.4292,825.5207Q576.03815,813.293,576.0,800.0001Q577.0294,759.2061,604.11774,732.1178Q631.20605,705.0294,672.0,704.0Q712.794,705.0294,739.88226,732.1178Q766.9706,759.2061,768.0,800.0001"/>
</g>
<g style="fill:rgb(255,255,255); fill-opacity:1.0; stroke-linejoin: miter">
<path d="M351.99997,575.99994L560.0,576.0003L768.0,576.0007Q768.0,688.0003,768.0,800.0Q560.0,800.00037,351.99997,800.0008Q351.99997,688.00037,351.99997,575.99994"/>
</g>
<g style="fill:rgb(255,255,255); fill-opacity:1.0; stroke-linejoin: miter">
<path d="M447.99997,895.9999L560.0,896.0003L672.0,896.00073Q672.0,688.00037,672.0,480.00003Q560.0,480.00037,447.99997,480.00073Q447.99997,688.0003,447.99997,895.9999"/>
</g>
</g>
<g id="layer2">
<g style="fill:rgb(0,0,0); fill-opacity:1.0; stroke-linejoin: miter">
<path d="M405.99997,608.0L405.99997,608.0Q406.0,534.0,479.99997,534.0C485.52283,534.0,489.99997,538.4772,489.99997,544.0C489.99997,549.5228,485.52283,554.0,479.99997,554.0L479.99997,554.0Q426.0,554.0,425.99997,608.0C425.99997,613.5228,421.52283,618.0,415.99997,618.0C410.4771,618.0,405.99997,613.5228,405.99997,608.0 Z"/>
</g>
<g style="fill:rgb(0,0,0); fill-opacity:1.0; stroke-linejoin: miter">
<path d="M479.99997,554.0L479.99997,554.0Q426.0,554.0,425.99997,608.0C425.99997,613.5228,421.52283,618.0,415.99997,618.0C410.4771,618.0,405.99997,613.5228,405.99997,608.0L405.99997,608.0Q406.0,534.0,479.99997,534.0C485.52283,534.0,489.99997,538.4772,489.99997,544.0C489.99997,549.5228,485.52283,554.0,479.99997,554.0 Z"/>
</g>
<g style="fill:rgb(0,0,0); fill-opacity:1.0; stroke-linejoin: miter">
<path d="M480.00015,534.0L480.00015,534.0L544.0001,534.001L544.0003,534.001L576.0003,534.00195C581.52313,534.00214,586.0002,538.47943,586.0,544.00226C585.9998,549.5251,581.5225,554.00214,575.9997,554.00195L575.9997,554.00195L543.9997,554.001L543.9999,554.001L479.99985,554.0C474.477,553.99994,469.9999,549.5227,470.0,543.9999C470.0001,538.47705,474.4773,533.99994,480.00015,534.0 Z"/>
</g>
<g style="fill:rgb(0,0,0); fill-opacity:1.0; stroke-linejoin: miter">
<path d="M576.0002,534.0L576.0002,534.0L640.0002,534.00104C645.523,534.0011,650.00006,538.4784,650.0,544.0012C649.99994,549.52405,645.52264,554.0011,639.9998,554.00104L639.9998,554.00104L575.9998,554.0C570.477,553.99994,565.99994,549.52264,566.0,543.9998C566.00006,538.477,570.47736,533.99994,576.0002,534.0 Z"/>
</g>
<g style="fill:rgb(0,0,0); fill-opacity:1.0; stroke-linejoin: miter">
<path d="M694.0,608.0L694.0,608.0Q694.0,554.0,640.0,554.0C634.4772,554.0,630.0,549.5228,630.0,544.0C630.0,538.4772,634.4772,534.0,640.0,534.0L640.0,534.0Q714.0,534.0,714.0,608.0C714.0,613.5228,709.5228,618.0,704.0,618.0C698.4772,618.0,694.0,613.5228,694.0,608.0 Z"/>
</g>
<g style="fill:rgb(0,0,0); fill-opacity:1.0; stroke-linejoin: miter">
<path d="M714.0,608.0L714.0,608.0L714.0,832.00006C714.0,837.5229,709.5228,842.00006,704.0,842.00006C698.4772,842.00006,694.0,837.5229,694.0,832.00006L694.0,832.00006L694.0,608.0C694.0,602.4772,698.4772,598.0,704.0,598.0C709.5228,598.0,714.0,602.4772,714.0,608.0 Z"/>
</g>
<g style="fill:rgb(0,0,0); fill-opacity:1.0; stroke-linejoin: miter">
<path d="M640.0,822.00006L640.0,822.00006Q694.0,821.99994,694.0,768.0C694.0,762.4772,698.4772,758.0,704.0,758.0C709.5228,758.0,714.0,762.4772,714.0,768.0L714.0,768.0Q714.0,841.99994,640.0,842.00006C634.4772,842.00006,630.0,837.5229,630.0,832.00006C630.0,826.47723,634.4772,822.00006,640.0,822.00006 Z"/>
</g>
<g style="fill:rgb(0,0,0); fill-opacity:1.0; stroke-linejoin: miter">
<path d="M480.00006,822.00006L480.00006,822.00006L608.00006,822.00104C613.5229,822.0011,618.00006,826.4783,618.0,832.0011C617.99994,837.5239,613.52277,842.0011,607.99994,842.00104L607.99994,842.00104L479.99994,842.00006C474.47708,842.0,469.99997,837.5228,470.0,832.0C470.00003,826.4772,474.4772,822.0,480.00006,822.00006 Z"/>
</g>
<g style="fill:rgb(0,0,0); fill-opacity:1.0; stroke-linejoin: miter">
<path d="M608.0003,822.00006L608.0003,822.00006L640.0003,822.00104C645.52313,822.0012,650.0002,826.4785,650.0,832.00134C649.9998,837.5242,645.5225,842.0012,639.9997,842.00104L639.9997,842.00104L607.9997,842.00006C602.47687,841.9999,597.9998,837.5226,598.0,831.99976C598.0002,826.4769,602.4775,821.9999,608.0003,822.00006 Z"/>
</g>
<g style="fill:rgb(0,0,0); fill-opacity:1.0; stroke-linejoin: miter">
<path d="M426.0,608.0L426.0,608.0L426.0,768.0C426.0,773.5228,421.52286,778.0,416.0,778.0C410.47714,778.0,406.0,773.5228,406.0,768.0L406.0,768.0L406.0,608.0C406.0,602.4772,410.47714,598.0,416.0,598.0C421.52286,598.0,426.0,602.4772,426.0,608.0 Z"/>
</g>
<g style="fill:rgb(0,0,0); fill-opacity:1.0; stroke-linejoin: miter">
<path d="M618.0,608.0L618.0,608.0L618.0,768.0C618.0,773.5228,613.5228,778.0,608.0,778.0C602.4772,778.0,598.0,773.5228,598.0,768.0L598.0,768.0L598.0,608.0C598.0,602.4772,602.4772,598.0,608.0,598.0C613.5228,598.0,618.0,602.4772,618.0,608.0 Z"/>
</g>
<g style="fill:rgb(0,0,0); fill-opacity:1.0; stroke-linejoin: miter">
<path d="M598.0,800.0L598.0,800.0L598.0,768.0C598.0,762.4772,602.4772,758.0,608.0,758.0C613.5228,758.0,618.0,762.4772,618.0,768.0L618.0,768.0L618.0,800.0C618.0,805.5228,613.5228,810.0,608.0,810.0C602.4772,810.0,598.0,805.5228,598.0,800.0 Z"/>
</g>
<g style="fill:rgb(0,0,0); fill-opacity:1.0; stroke-linejoin: miter">
<path d="M479.99997,842.0L479.99997,842.0Q406.0,842.0,405.99997,768.0C405.99997,762.4772,410.4771,758.0,415.99997,758.0C421.52283,758.0,425.99997,762.4772,425.99997,768.0L425.99997,768.0Q426.0,822.0,479.99997,822.0C485.52283,822.0,489.99997,826.4772,489.99997,832.0C489.99997,837.5228,485.52283,842.0,479.99997,842.0 Z"/>
</g>
<g style="fill:rgb(0,0,0); fill-opacity:1.0; stroke-linejoin: miter">
<path d="M438.0,768.0L438.0,768.0L438.0,640.0C438.0,634.4772,442.47714,630.0,448.0,630.0C453.52286,630.0,458.0,634.4772,458.0,640.0L458.0,640.0L458.0,768.0C458.0,773.5228,453.52286,778.0,448.0,778.0C442.47714,778.0,438.0,773.5228,438.0,768.0 Z"/>
</g>
<g style="fill:rgb(0,0,0); fill-opacity:1.0; stroke-linejoin: miter">
<path d="M458.0,608.0L458.0,608.0L458.0,640.0C458.0,645.5228,453.52286,650.0,448.0,650.0C442.47714,650.0,438.0,645.5228,438.0,640.0L438.0,640.0L438.0,608.0C438.0,602.4772,442.47714,598.0,448.0,598.0C453.52286,598.0,458.0,602.4772,458.0,608.0 Z"/>
</g>
<g style="fill:rgb(0,0,0); fill-opacity:1.0; stroke-linejoin: miter">
<path d="M512.0003,694.0L512.0003,694.0L544.00024,694.001C549.5231,694.00116,554.0001,698.47845,553.99994,704.0013C553.99976,709.5241,549.52246,714.00116,543.99963,714.001L543.99963,714.001L511.99966,714.0C506.4768,713.9998,501.9998,709.5225,501.99997,703.9997C502.00015,698.47687,506.47745,693.9998,512.0003,694.0 Z"/>
</g>
<g style="fill:rgb(0,0,0); fill-opacity:1.0; stroke-linejoin: miter">
<path d="M544.00024,694.0L544.00024,694.0L576.0003,694.001C581.52313,694.00116,586.0002,698.47845,586.0,704.0013C585.9998,709.5241,581.5225,714.00116,575.9997,714.001L575.9997,714.001L543.99963,714.0C538.4768,713.9998,533.99976,709.5225,533.99994,703.9997C534.0001,698.47687,538.4774,693.9998,544.00024,694.0 Z"/>
</g>
<g style="fill:rgb(0,0,0); fill-opacity:1.0; stroke-linejoin: miter">
<path d="M218.86707,-74.27102L218.86707,-74.27102L218.86707,-74.27002L198.86707,-74.27002L198.86707,-74.27102L218.86707,-74.27102L218.86707,-74.27002L198.86707,-74.27002L198.86707,-74.27102L218.86707,-74.27102 M198.86707,-74.27102C198.86707,-79.79387,203.34422,-84.27102,208.86707,-84.27102C214.38991,-84.27102,218.86707,-79.79387,218.86707,-74.27102L218.86707,-74.27102L218.86707,-74.27002C218.86707,-68.74717,214.38991,-64.27002,208.86707,-64.27002C203.34422,-64.27002,198.86707,-68.74717,198.86707,-74.27002L198.86707,-74.27002L198.86707,-74.27102C198.86707,-79.79387,203.34422,-84.27102,208.86707,-84.27102C214.38991,-84.27102,218.86707,-79.79387,218.86707,-74.27102L218.86707,-74.27102L218.86707,-74.27002C218.86707,-68.74717,214.38991,-64.27002,208.86707,-64.27002C203.34422,-64.27002,198.86707,-68.74717,198.86707,-74.27002L198.86707,-74.27002L198.86707,-74.27102 Z"/>
</g>
<g style="fill:rgb(0,0,0); fill-opacity:1.0; stroke-linejoin: miter">
<path d="M694.0,864.00006L694.0,864.00006L694.0,832.0C694.0,826.4772,698.4772,822.0,704.0,822.0C709.5228,822.0,714.0,826.4772,714.0,832.0L714.0,832.0L714.0,864.00006C714.0,869.5229,709.5228,874.00006,704.0,874.00006C698.4772,874.00006,694.0,869.5229,694.0,864.00006 Z"/>
</g>
<g style="fill:rgb(0,0,0); fill-opacity:1.0; stroke-linejoin: miter">
<path d="M218.86707,-74.27102L218.86707,-74.27102L218.86707,-74.27002C218.86707,-68.74717,214.38991,-64.27002,208.86707,-64.27002C203.34422,-64.27002,198.86707,-68.74717,198.86707,-74.27002L198.86707,-74.27002L198.86707,-74.27102C198.86707,-79.79387,203.34422,-84.27102,208.86707,-84.27102C214.38991,-84.27102,218.86707,-79.79387,218.86707,-74.27102 Z"/>
</g>
<g style="fill:rgb(0,0,0); fill-opacity:1.0; stroke-linejoin: miter">
<path d="M218.86707,-74.27102L218.86707,-74.27102L218.86707,-74.27002L198.86707,-74.27002L198.86707,-74.27102L218.86707,-74.27102L218.86707,-74.27002L198.86707,-74.27002L198.86707,-74.27102L218.86707,-74.27102 M198.86707,-74.27102C198.86707,-79.79387,203.34422,-84.27102,208.86707,-84.27102C214.38991,-84.27102,218.86707,-79.79387,218.86707,-74.27102L218.86707,-74.27102L218.86707,-74.27002C218.86707,-68.74717,214.38991,-64.27002,208.86707,-64.27002C203.34422,-64.27002,198.86707,-68.74717,198.86707,-74.27002L198.86707,-74.27002L198.86707,-74.27102C198.86707,-79.79387,203.34422,-84.27102,208.86707,-84.27102C214.38991,-84.27102,218.86707,-79.79387,218.86707,-74.27102L218.86707,-74.27102L218.86707,-74.27002C218.86707,-68.74717,214.38991,-64.27002,208.86707,-64.27002C203.34422,-64.27002,198.86707,-68.74717,198.86707,-74.27002L198.86707,-74.27002L198.86707,-74.27102 Z"/>
</g>
<g style="fill:rgb(0,0,0); fill-opacity:1.0; stroke-linejoin: miter">
<path d="M266.88306,-23.480587L266.88306,-23.480587L266.88306,-23.479588L246.88306,-23.479588L246.88306,-23.480587L266.88306,-23.480587L266.88306,-23.479588L246.88306,-23.479588L246.88306,-23.480587L266.88306,-23.480587 M246.88306,-23.480587C246.88306,-29.003433,251.36021,-33.480583,256.88306,-33.480583C262.4059,-33.480583,266.88306,-29.003433,266.88306,-23.480587L266.88306,-23.480587L266.88306,-23.479588C266.88306,-17.956741,262.4059,-13.479589,256.88306,-13.479589C251.36021,-13.479589,246.88306,-17.956741,246.88306,-23.479588L246.88306,-23.479588L246.88306,-23.480587C246.88306,-29.003433,251.36021,-33.480583,256.88306,-33.480583C262.4059,-33.480583,266.88306,-29.003433,266.88306,-23.480587L266.88306,-23.480587L266.88306,-23.479588C266.88306,-17.956741,262.4059,-13.479589,256.88306,-13.479589C251.36021,-13.479589,246.88306,-17.956741,246.88306,-23.479588L246.88306,-23.479588L246.88306,-23.480587 Z"/>
</g>
<g style="fill:rgb(10,197,207); fill-opacity:1.0; stroke-linejoin: miter">
<path d="M682.0,608.0L682.0,608.0L682.0,768.0C682.0,773.5228,677.5228,778.0,672.0,778.0C666.4772,778.0,662.0,773.5228,662.0,768.0L662.0,768.0L662.0,608.0C662.0,602.4772,666.4772,598.0,672.0,598.0C677.5228,598.0,682.0,602.4772,682.0,608.0 Z"/>
</g>
<g style="fill:rgb(10,197,207); fill-opacity:1.0; stroke-linejoin: miter">
<path d="M470.0,768.0L470.0,768.0L470.0,672.0C470.0,666.4772,474.47714,662.0,480.0,662.0C485.52286,662.0,490.0,666.4772,490.0,672.0L490.0,672.0L490.0,768.0C490.0,773.5228,485.52286,778.0,480.0,778.0C474.47714,778.0,470.0,773.5228,470.0,768.0 Z"/>
</g>
<g style="fill:rgb(10,197,207); fill-opacity:1.0; stroke-linejoin: miter">
<path d="M470.0,800.0L470.0,800.0L470.0,656.0L470.0,656.0L470.00003,640.0C470.00003,634.4772,474.4772,630.0,480.00006,630.0C485.52292,630.0,490.00003,634.4772,490.00003,640.0L490.00003,640.0L490.0,656.0L490.0,656.0L490.0,800.0C490.0,805.5228,485.52286,810.0,480.0,810.0C474.47714,810.0,470.0,805.5228,470.0,800.0 Z"/>
</g>
<g style="fill:rgb(10,197,207); fill-opacity:1.0; stroke-linejoin: miter">
<path d="M470.00003,640.0L470.00003,640.0L470.0,608.0C470.0,602.4772,474.47714,598.0,480.0,598.0C485.52286,598.0,490.0,602.4772,490.0,608.0L490.0,608.0L490.00003,640.0C490.00003,645.5228,485.5229,650.0,480.00003,650.0C474.47717,650.0,470.00003,645.5228,470.00003,640.0 Z"/>
</g>
<g style="fill:rgb(10,197,207); fill-opacity:1.0; stroke-linejoin: miter">
<path d="M470.01724,607.4128L470.01724,607.4128L470.4123,600.6967C470.43945,600.23517,470.4986,599.7761,470.58926,599.32275L470.58926,599.32275L471.77448,593.39685C471.88553,592.8416,472.04352,592.2968,472.2468,591.7683L472.2468,591.7683L474.22208,586.6325C474.46106,586.0111,474.7615,585.4151,475.11893,584.85345L475.11893,584.85345L477.88437,580.50775C478.2761,579.89215,478.734,579.32135,479.24994,578.8054L479.24994,578.8054L482.8055,575.2499C483.3214,574.73395,483.89224,574.2761,484.50778,573.8844L484.50778,573.8844L488.85345,571.11896C489.41513,570.76154,490.01108,570.46106,490.63248,570.22205L490.63248,570.22205L495.76828,568.24677C496.29678,568.0435,496.8416,567.8855,497.39688,567.7745L497.39688,567.7745L503.3228,566.5893C503.77615,566.49866,504.2352,566.4395,504.69672,566.41235L504.69672,566.41235L511.41275,566.0173C516.9261,565.69293,521.6584,569.8995,521.9827,575.4128C522.30707,580.9261,518.1005,585.6584,512.5872,585.9827L512.5872,585.9827L505.87122,586.3778L507.24512,586.20087L501.31918,587.38605L502.94778,586.91376L497.81198,588.88904L499.591,587.9921L495.24533,590.75757L496.9476,589.3921L493.39203,592.94763L494.7576,591.2453L491.99216,595.591L492.889,593.81195L490.91373,598.94775L491.38605,597.3192L490.20084,603.2451L490.3778,601.87115L489.98276,608.5872C489.65845,614.1005,484.92612,618.307,479.4128,617.9827C473.8995,617.65845,469.69293,612.9261,470.01724,607.4128 Z"/>
</g>
<g style="fill:rgb(10,197,207); fill-opacity:1.0; stroke-linejoin: miter">
<path d="M512.0002,566.0L512.0002,566.0L576.0002,566.0011C581.523,566.0012,586.0001,570.47845,586.0,576.0013C585.9999,581.5241,581.52264,586.0012,575.9998,586.0011L575.9998,586.0011L511.99982,586.0C506.47696,585.9999,501.9999,581.52264,502.0,575.9998C502.0001,570.477,506.47733,565.9999,512.0002,566.0 Z"/>
</g>
<g style="fill:rgb(10,197,207); fill-opacity:1.0; stroke-linejoin: miter">
<path d="M544.0002,566.0L544.0002,566.0L608.0002,566.0011C613.523,566.0012,618.0001,570.47845,618.0,576.0013C617.9999,581.5241,613.52264,586.0012,607.9998,586.0011L607.9998,586.0011L543.9998,586.0C538.477,585.9999,533.9999,581.52264,534.0,575.9998C534.0001,570.477,538.47736,565.9999,544.0002,566.0 Z"/>
</g>
<g style="fill:rgb(10,197,207); fill-opacity:1.0; stroke-linejoin: miter">
<path d="M608.5872,566.0173L608.5872,566.0173L615.3033,566.41235C615.7648,566.4395,616.22394,566.49866,616.67725,566.5893L616.67725,566.5893L622.60315,567.7745C623.1584,567.8855,623.7032,568.0435,624.2317,568.24677L624.2317,568.24677L629.3675,570.22205C629.9889,570.46106,630.5849,570.7615,631.14655,571.1189L631.14655,571.1189L635.49225,573.88434C636.1078,574.27606,636.6786,574.734,637.1945,575.24994L637.1945,575.24994L640.75006,578.8055C641.266,579.3214,641.72394,579.8922,642.11566,580.50775L642.11566,580.50775L644.8811,584.85345C645.2385,585.4151,645.53894,586.0111,645.77795,586.6325L645.77795,586.6325L647.75323,591.7683C647.9565,592.2968,648.1145,592.8416,648.2255,593.39685L648.2255,593.39685L649.4107,599.32275C649.50134,599.77606,649.5605,600.2352,649.58765,600.6967L649.58765,600.6967L649.9827,607.4128C650.30707,612.9261,646.1005,617.6584,640.5872,617.9827C635.0739,618.30707,630.3416,614.1005,630.0173,608.5872L630.0173,608.5872L629.6222,601.87115L629.79913,603.2451L628.61395,597.3192L629.08624,598.94775L627.11096,593.81195L628.0078,595.591L625.2424,591.2453L626.608,592.9476L623.0524,589.392L624.7547,590.7576L620.409,587.9922L622.18805,588.88904L617.05225,586.91376L618.6808,587.38605L612.7549,586.20087L614.12885,586.3778L607.4128,585.9827C601.8995,585.6584,597.69293,580.9261,598.0173,575.4128C598.3416,569.8995,603.0739,565.69293,608.5872,566.0173 Z"/>
</g>
<g style="fill:rgb(10,197,207); fill-opacity:1.0; stroke-linejoin: miter">
<path d="M650.0,608.0L650.0,608.0L650.0,735.99994C650.0,741.52277,645.5228,745.99994,640.0,745.99994C634.4772,745.99994,630.0,741.52277,630.0,735.99994L630.0,735.99994L630.0,608.0C630.0,602.4772,634.4772,598.0,640.0,598.0C645.5228,598.0,650.0,602.4772,650.0,608.0 Z"/>
</g>
<g style="fill:rgb(10,197,207); fill-opacity:1.0; stroke-linejoin: miter">
<path d="M650.0,703.99994L650.0,703.99994L650.0,767.99994C650.0,773.52277,645.5228,777.99994,640.0,777.99994C634.4772,777.99994,630.0,773.52277,630.0,767.99994L630.0,767.99994L630.0,703.99994C630.0,698.4771,634.4772,693.99994,640.0,693.99994C645.5228,693.99994,650.0,698.4771,650.0,703.99994 Z"/>
</g>
<g style="fill:rgb(10,197,207); fill-opacity:1.0; stroke-linejoin: miter">
<path d="M630.0,800.0L630.0,800.0L630.0,767.99994C630.0,762.4771,634.4772,757.99994,640.0,757.99994C645.5228,757.99994,650.0,762.4771,650.0,767.99994L650.0,767.99994L650.0,800.0C650.0,805.5228,645.5228,810.0,640.0,810.0C634.4772,810.0,630.0,805.5228,630.0,800.0 Z"/>
</g>
<g style="fill:rgb(0,0,0); fill-opacity:1.0; stroke-linejoin: miter">
<path d="M575.41284,694.01715L575.41284,694.01715L582.1289,693.62213L580.7549,693.7991L586.6808,692.6139L585.0521,693.08624L590.1879,691.1109L588.4091,692.0077L592.7548,689.2423L591.0524,690.6079L594.608,687.05237L593.2424,688.75464L596.0078,684.40894L595.11096,686.188L597.08624,681.0522L596.61395,682.6807L597.79913,676.7548L597.6222,678.1288L598.0173,671.4127C598.3416,665.8994,603.0739,661.6929,608.5872,662.0172C614.1005,662.34155,618.30707,667.07385,617.9827,672.58716L617.9827,672.58716L617.58765,679.3032C617.5605,679.7647,617.50134,680.2239,617.4107,680.6772L617.4107,680.6772L616.2255,686.6031C616.1145,687.1583,615.9565,687.7031,615.75323,688.2316L615.75323,688.2316L613.77795,693.36743C613.53894,693.98883,613.2385,694.58484,612.8811,695.1465L612.8811,695.1465L610.11566,699.4922C609.72394,700.1077,609.266,700.6785,608.75006,701.19446L608.75006,701.19446L605.1945,704.75C604.6786,705.2659,604.1077,705.7239,603.4921,706.1156L603.4921,706.1156L599.1464,708.881C598.58484,709.23834,597.98895,709.5388,597.3676,709.7778L597.3676,709.7778L592.2318,711.7531C591.70325,711.9564,591.15845,712.1144,590.60315,712.22546L590.60315,712.22546L584.67725,713.41064C584.2239,713.50134,583.7648,713.5604,583.3032,713.5876L583.3032,713.5876L576.58716,713.9826C571.07385,714.3069,566.34155,710.10034,566.0173,704.58704C565.693,699.0737,569.89954,694.34143,575.41284,694.01715 Z"/>
</g>
<g style="fill:rgb(10,197,207); fill-opacity:1.0; stroke-linejoin: miter">
<path d="M470.01724,703.4127L470.01724,703.4127L470.4123,696.69666C470.43945,696.2351,470.4986,695.77606,470.58926,695.3227L470.58926,695.3227L471.77448,689.3968C471.88553,688.84155,472.04352,688.29675,472.2468,687.76825L472.2468,687.76825L474.22208,682.63245C474.46106,682.01105,474.7615,681.4151,475.11896,680.8534L475.11896,680.8534L477.8844,676.50775C478.27612,675.8922,478.734,675.32135,479.24994,674.8054L479.24994,674.8054L482.8055,671.2499C483.3214,670.73395,483.89224,670.2761,484.50778,669.8844L484.50778,669.8844L488.85345,667.11896C489.41513,666.76154,490.01108,666.46106,490.63248,666.22205L490.63248,666.22205L495.76828,664.24677C496.29678,664.0435,496.8416,663.8855,497.39688,663.7745L497.39688,663.7745L503.3228,662.5893C503.77615,662.49866,504.2352,662.4395,504.69672,662.41235L504.69672,662.41235L511.41275,662.0173C516.9261,661.69293,521.6584,665.8995,521.9827,671.4128C522.30707,676.9261,518.1005,681.6584,512.5872,681.9827L512.5872,681.9827L505.87122,682.3778L507.24512,682.20087L501.31918,683.38605L502.94778,682.91376L497.81198,684.88904L499.591,683.9921L495.24533,686.75757L496.9476,685.3921L493.39203,688.94763L494.75757,687.2453L491.99213,691.59094L492.889,689.8119L490.91373,694.9477L491.38605,693.31915L490.20084,699.24506L490.3778,697.8711L489.98276,704.58716C489.65845,710.10046,484.92612,714.30695,479.4128,713.98267C473.8995,713.6584,469.69293,708.926,470.01724,703.4127 Z"/>
</g>
<g style="fill:rgb(10,197,207); fill-opacity:1.0; stroke-linejoin: miter">
<path d="M512.00024,662.0L512.00024,662.0L554.66693,662.001L554.6652,662.001L561.7763,661.99994L561.77844,661.99994L576.0007,662.0009C581.5235,662.0013,586.00037,666.47876,586.0,672.0016C585.99963,677.5244,581.52216,682.0013,575.9993,682.0009L575.9993,682.0009L561.7771,681.99994L561.77924,681.99994L554.66815,682.001L554.66644,682.001L511.9998,682.0C506.47693,681.9999,501.99988,677.5226,502.0,671.99976C502.00012,666.4769,506.4774,661.9999,512.00024,662.0 Z"/>
</g>
<g style="fill:rgb(10,197,207); fill-opacity:1.0; stroke-linejoin: miter">
<path d="M511.41275,681.9827L511.41275,681.9827L504.69672,681.58765C504.2352,681.5605,503.77615,681.50134,503.3228,681.4107L503.3228,681.4107L497.39688,680.2255C496.8416,680.1145,496.29678,679.9565,495.76828,679.75323L495.76828,679.75323L490.63248,677.77795C490.01108,677.53894,489.41513,677.23846,488.85345,676.88104L488.85345,676.88104L484.50778,674.1156C483.89224,673.7239,483.3214,673.26605,482.8055,672.7501L482.8055,672.7501L479.24994,669.1946C478.73398,668.67865,478.27606,668.1078,477.88434,667.4922L477.88434,667.4922L475.11893,663.1465C474.76154,662.58484,474.4611,661.9889,474.2221,661.36755L474.2221,661.36755L472.2468,656.23175C472.04352,655.70325,471.8855,655.15845,471.77444,654.60315L471.77444,654.60315L470.58926,648.67725C470.4986,648.2239,470.43948,647.76483,470.41232,647.3033L470.41232,647.3033L470.01727,640.5872C469.69296,635.0739,473.89954,630.34155,479.41284,630.0173C484.92615,629.693,489.65848,633.8995,489.9828,639.4128L489.9828,639.4128L490.37784,646.12885L490.2009,644.7549L491.38608,650.6808L490.91373,649.0522L492.88904,654.188L491.99222,652.40906L494.75763,656.75476L493.39203,655.05237L496.9476,658.6079L495.24533,657.24243L499.591,660.0079L497.81198,659.11096L502.94778,661.08624L501.31918,660.61395L507.24512,661.79913L505.87122,661.6222L512.5872,662.0173C518.1005,662.3416,522.30707,667.0739,521.9827,672.5872C521.6584,678.1005,516.9261,682.30707,511.41275,681.9827 Z"/>
</g>
<g style="fill:rgb(0,0,0); fill-opacity:1.0; stroke-linejoin: miter">
<path d="M576.5872,694.01715L576.5872,694.01715L583.3033,694.41223C583.7648,694.4394,584.22394,694.49854,584.67725,694.5892L584.67725,694.5892L590.60315,695.77435C591.15845,695.88544,591.70325,696.0434,592.2318,696.2467L592.2318,696.2467L597.3676,698.22205C597.98895,698.461,598.5849,698.7614,599.14655,699.11884L599.14655,699.11884L603.49225,701.8843C604.1078,702.276,604.6786,702.73395,605.1945,703.2499L605.1945,703.2499L608.75006,706.8054C609.266,707.32135,609.72394,707.89215,610.11566,708.5077L610.11566,708.5077L612.8811,712.8534C613.2385,713.41504,613.53894,714.01105,613.77795,714.63245L613.77795,714.63245L615.75323,719.76825C615.9565,720.29675,616.1145,720.84155,616.2255,721.3968L616.2255,721.3968L617.4107,727.3227C617.50134,727.776,617.5605,728.23517,617.58765,728.69666L617.58765,728.69666L617.9827,735.4127C618.30707,740.926,614.1005,745.6583,608.5872,745.98267C603.0739,746.307,598.3416,742.10046,598.0173,736.58716L598.0173,736.58716L597.6222,729.8711L597.79913,731.24506L596.61395,725.31915L597.08624,726.9477L595.11096,721.8119L596.0078,723.59094L593.2424,719.24524L594.608,720.9475L591.0524,717.39197L592.7547,718.75757L588.409,715.9921L590.1879,716.8889L585.0521,714.9136L586.6808,715.3859L580.7549,714.20074L582.12885,714.3777L575.4128,713.9826C569.8995,713.65826,565.69293,708.92596,566.0173,703.41266C566.3416,697.89935,571.0739,693.6928,576.5872,694.01715 Z"/>
</g>
<g style="fill:rgb(0,0,0); fill-opacity:1.0; stroke-linejoin: miter">
<path d="M640.0,822.0L640.0,822.0Q663.6939,822.0,680.02765,830.1668L680.0277,830.1668Q685.7159,833.0109,690.49384,836.8333C690.6375,836.9483,690.77765,837.0668,690.9148,837.1895L690.9148,837.1895L694.6679,840.54755C694.8058,840.6709,694.94025,840.7981,695.0711,840.92896L695.0711,840.92896L711.07104,856.92896C714.97626,860.8342,714.97626,867.1659,711.071,871.0711C707.1657,874.9763,700.83405,874.9763,696.92883,871.07104L696.92883,871.07104L680.9289,855.07104L681.3321,855.45245L677.579,852.0944L677.99994,852.4506Q674.8768,849.9521,671.0834,848.05536L671.08344,848.05536Q658.9726,842.0,640.0,842.0C634.4772,842.0,630.0,837.5228,630.0,832.0C630.0,826.4772,634.4772,822.0,640.0,822.0 Z"/>
</g>
<g style="fill:rgb(0,0,0); fill-opacity:1.0; stroke-linejoin: miter">
<path d="M704.0003,842.0L704.0003,842.0L672.0003,842.001C666.4775,842.00116,662.0002,837.5241,662.0,832.0013C661.9998,826.47845,666.47687,822.00116,671.9997,822.001L671.9997,822.001L703.9997,822.0C709.5225,821.9998,713.9998,826.47687,714.0,831.9997C714.0002,837.5225,709.52313,841.9998,704.0003,842.0 Z"/>
</g>
</g>
</svg>