<?xml version="1.0" encoding="utf-8"?>
<svg xmlns="http://www.w3.org/2000/svg" xmlns:xlink="http://www.w3.org/1999/xlink" version= "1.1" width="452px" height="452px" viewBox="333 461 452 452">
<g id="layer1">
<g style="fill:rgb(0,0,0); fill-opacity:1.0; stroke-linejoin: miter">
<path d="M479.99997,534.0Q406.0,534.0,405.99997,608.0C405.99997,613.5228,410.4771,618.0,415.99997,618.0C421.52283,618.0,425.99997,613.5228,425.99997,608.0Q426.0,554.0,479.99997,554.0C485.52283,554.0,489.99997,549.5228,489.99997,544.0C489.99997,538.4772,485.52283,534.0,479.99997,534.0 Z"/>
</g>
<g style="fill:rgb(0,0,0); fill-opacity:1.0; stroke-linejoin: miter">
<path d="M479.99997,534.0Q406.0,534.0,405.99997,608.0C405.99997,613.5228,410.4771,618.0,415.99997,618.0C421.52283,618.0,425.99997,613.5228,425.99997,608.0Q426.0,554.0,479.99997,554.0C485.52283,554.0,489.99997,549.5228,489.99997,544.0C489.99997,538.4772,485.52283,534.0,479.99997,534.0 Z"/>
</g>
<g style="fill:rgb(0,0,0); fill-opacity:1.0; stroke-linejoin: miter">
<path d="M480.0,534.0C474.47714,534.0,470.0,538.4772,470.0,544.0C470.0,549.5228,474.47714,554.0,480.0,554.0L543.9997,554.0L575.9997,554.001C575.9998,554.001,575.99994,554.001,576.00006,554.001C581.5227,554.001,585.9998,549.524,586.0,544.0013C586.0002,538.47845,581.52313,534.00116,576.0003,534.001L544.0003,534.0 Z"/>
</g>
<g style="fill:rgb(0,0,0); fill-opacity:1.0; stroke-linejoin: miter">
<path d="M576.00006,534.0C570.4773,534.0,566.00006,538.47705,566.0,543.9998C565.99994,549.52264,570.477,553.99994,575.9998,554.0L639.9998,554.00104C639.9999,554.00104,639.9999,554.00104,639.99994,554.00104C645.5227,554.00104,649.99994,549.524,650.0,544.0012C650.00006,538.4784,645.523,534.0011,640.0002,534.00104L576.0002,534.0C576.0001,534.0,576.0001,534.0,576.00006,534.0 Z"/>
</g>
<g style="fill:rgb(0,0,0); fill-opacity:1.0; stroke-linejoin: miter">
<path d="M640.0,534.0C634.4772,534.0,630.0,538.4772,630.0,544.0C630.0,549.5228,634.4772,554.0,640.0,554.0Q694.0,554.0,694.0,608.0C694.0,613.5228,698.4772,618.0,704.0,618.0C709.5228,618.0,714.0,613.5228,714.0,608.0Q714.0,534.0,640.0,534.0 Z"/>
</g>
<g style="fill:rgb(0,0,0); fill-opacity:1.0; stroke-linejoin: miter">
<path d="M704.0,598.0C698.4772,598.0,694.0,602.4772,694.0,608.0L694.0,832.00006C694.0,837.5229,698.4772,842.00006,704.0,842.00006C709.5228,842.00006,714.0,837.5229,714.0,832.00006L714.0,608.0C714.0,602.4772,709.5228,598.0,704.0,598.0 Z"/>
</g>
<g style="fill:rgb(0,0,0); fill-opacity:1.0; stroke-linejoin: miter">
<path d="M704.0,758.0C698.4772,758.0,694.0,762.4772,694.0,768.0Q694.0,821.99994,640.0,822.00006C634.4772,822.00006,630.0,826.47723,630.0,832.00006C630.0,837.5229,634.4772,842.00006,640.0,842.00006Q714.0,841.99994,714.0,768.0C714.0,762.4772,709.5228,758.0,704.0,758.0 Z"/>
</g>
<g style="fill:rgb(0,0,0); fill-opacity:1.0; stroke-linejoin: miter">
<path d="M479.99994,822.00006C474.47714,822.00006,470.00003,826.47723,470.0,832.0C469.99997,837.5228,474.47708,842.0,479.99994,842.00006L607.99994,842.00104C608.0,842.00104,608.0,842.00104,608.00006,842.00104C613.5228,842.00104,617.99994,837.52386,618.0,832.0011C618.00006,826.4783,613.5229,822.0011,608.00006,822.00104L480.00006,822.00006C480.00003,822.00006,480.0,822.00006,479.99994,822.00006 Z"/>
</g>
<g style="fill:rgb(0,0,0); fill-opacity:1.0; stroke-linejoin: miter">
<path d="M608.0002,822.0L608.0002,822.0L640.0002,822.00073C645.5231,822.00085,650.0001,826.4781,650.0,832.001C649.9999,837.52374,645.5226,842.00085,639.99976,842.00073L639.99976,842.00073L607.99976,842.00006C602.4769,841.99994,597.9999,837.52264,598.0,831.9998C598.0001,826.477,602.4773,821.9999,608.0002,822.0 Z"/>
</g>
<g style="fill:rgb(0,0,0); fill-opacity:1.0; stroke-linejoin: miter">
<path d="M416.0,598.0C410.47714,598.0,406.0,602.4772,406.0,608.0L406.0,768.0C406.0,773.5228,410.47714,778.0,416.0,778.0C421.52286,778.0,426.0,773.5228,426.0,768.0L426.0,608.0C426.0,602.4772,421.52286,598.0,416.0,598.0 Z"/>
</g>
<g style="fill:rgb(0,0,0); fill-opacity:1.0; stroke-linejoin: miter">
<path d="M608.0,598.0C602.4772,598.0,598.0,602.4772,598.0,608.0L598.0,768.0C598.0,773.5228,602.4772,778.0,608.0,778.0C613.5228,778.0,618.0,773.5228,618.0,768.0L618.0,608.0C618.0,602.4772,613.5228,598.0,608.0,598.0 Z"/>
</g>
<g style="fill:rgb(0,0,0); fill-opacity:1.0; stroke-linejoin: miter">
<path d="M598.0,800.0L598.0,800.0L598.0,768.0C598.0,762.4772,602.4771,758.0,608.0,758.0C613.5228,758.0,618.0,762.4772,618.0,768.0L618.0,768.0L618.0,800.0C618.0,805.5228,613.5228,810.0,608.0,810.0C602.4771,810.0,598.0,805.5228,598.0,800.0 Z"/>
</g>
<g style="fill:rgb(0,0,0); fill-opacity:1.0; stroke-linejoin: miter">
<path d="M415.99997,758.0C410.4771,758.0,405.99997,762.4772,405.99997,768.0Q406.0,842.0,479.99997,842.0C485.52283,842.0,489.99997,837.5228,489.99997,832.0C489.99997,826.4772,485.52283,822.0,479.99997,822.0Q426.0,822.0,425.99997,768.0C425.99997,762.4772,421.52283,758.0,415.99997,758.0 Z"/>
</g>
<g style="fill:rgb(0,0,0); fill-opacity:1.0; stroke-linejoin: miter">
<path d="M448.0,630.0C442.47714,630.0,438.0,634.4772,438.0,640.0L438.0,768.0C438.0,773.5228,442.47714,778.0,448.0,778.0C453.52286,778.0,458.0,773.5228,458.0,768.0L458.0,640.0C458.0,634.4772,453.52286,630.0,448.0,630.0 Z"/>
</g>
<g style="fill:rgb(0,0,0); fill-opacity:1.0; stroke-linejoin: miter">
<path d="M458.0,608.0L458.0,608.0L458.0,640.0C458.0,645.5228,453.52286,650.0,448.0,650.0C442.47717,650.0,438.0,645.5228,438.0,640.0L438.0,640.0L438.0,608.0C438.0,602.4772,442.47714,598.0,448.0,598.0C453.52283,598.0,458.0,602.4772,458.0,608.0 Z"/>
</g>
<g style="fill:rgb(0,0,0); fill-opacity:1.0; stroke-linejoin: miter">
<path d="M512.0001,694.0L512.0001,694.0L544.0001,694.0005C549.52295,694.0006,554.00006,698.4778,553.99994,704.00073C553.9999,709.52356,549.52264,714.0006,543.99976,714.0005L543.99976,714.0005L511.99982,714.0C506.47696,713.9999,501.99988,709.5227,501.99997,703.9999C502.00006,698.477,506.4773,693.9999,512.0001,694.0 Z"/>
</g>
<g style="fill:rgb(0,0,0); fill-opacity:1.0; stroke-linejoin: miter">
<path d="M544.0001,694.0L544.0001,694.0L576.0002,694.0005C581.523,694.0006,586.0001,698.4778,586.0,704.00073C585.99994,709.52356,581.5227,714.0006,575.9999,714.0005L575.9999,714.0005L543.99976,714.0C538.4769,713.9999,533.9999,709.5227,533.99994,703.9999C534.00006,698.4769,538.4773,693.9999,544.0001,694.0 Z"/>
</g>
<g style="fill:rgb(0,0,0); fill-opacity:1.0; stroke-linejoin: miter">
<path d="M218.86707,-74.27102L218.86707,-74.27102L218.86707,-74.27005L198.86707,-74.27005L198.86707,-74.27102L218.86707,-74.27102L218.86707,-74.27005L198.86707,-74.27005L198.86707,-74.27102L218.86707,-74.27102 M198.86707,-74.27102C198.86707,-79.79387,203.34422,-84.27102,208.86707,-84.27102C214.38991,-84.27102,218.86707,-79.79387,218.86707,-74.27102L218.86707,-74.27102L218.86707,-74.27005C218.86707,-68.7472,214.38991,-64.27005,208.86707,-64.27005C203.34422,-64.27005,198.86707,-68.7472,198.86707,-74.27005L198.86707,-74.27005L198.86707,-74.27102C198.86707,-79.79387,203.34422,-84.27102,208.86707,-84.27102C214.38991,-84.27102,218.86707,-79.79387,218.86707,-74.27102L218.86707,-74.27102L218.86707,-74.27005C218.86707,-68.7472,214.38991,-64.27005,208.86707,-64.27005C203.34422,-64.27005,198.86707,-68.7472,198.86707,-74.27005L198.86707,-74.27005L198.86707,-74.27102 Z"/>
</g>
<g style="fill:rgb(0,0,0); fill-opacity:1.0; stroke-linejoin: miter">
<path d="M694.0,864.00006L694.0,864.00006L694.0,832.0C694.0,826.4772,698.4772,822.0,704.0,822.0C709.5229,822.0,714.0,826.4772,714.0,832.0L714.0,832.0L714.0,864.00006C714.0,869.5229,709.5229,874.00006,704.0,874.00006C698.4772,874.00006,694.0,869.5229,694.0,864.00006 Z"/>
</g>
<g style="fill:rgb(0,0,0); fill-opacity:1.0; stroke-linejoin: miter">
<path d="M218.86707,-74.27102L218.86707,-74.27102L218.86707,-74.27005C218.86707,-68.7472,214.38991,-64.27005,208.86707,-64.27005C203.34422,-64.27005,198.86707,-68.7472,198.86707,-74.27005L198.86707,-74.27005L198.86707,-74.27102C198.86707,-79.79387,203.34422,-84.27102,208.86707,-84.27102C214.38991,-84.27102,218.86707,-79.79387,218.86707,-74.27102 Z"/>
</g>
<g style="fill:rgb(0,0,0); fill-opacity:1.0; stroke-linejoin: miter">
<path d="M800.00006,937.99994L800.00006,937.99994L320.00006,938.00085C317.3479,938.00085,314.80435,936.9473,312.929,935.07196C311.05362,933.1966,310.00006,930.6531,310.00006,928.0009L310.00006,928.0009L310.00006,447.99997C310.00006,445.3478,311.05362,442.80423,312.929,440.92886C314.80435,439.0535,317.3479,437.99997,320.00006,437.99997L320.00006,437.99997L800.00006,438.0009C805.5229,438.0009,810.00006,442.47806,810.00006,448.0009L810.00006,448.0009L810.00006,928.0C810.00006,933.5228,805.5229,937.99994,800.00006,937.99994L800.00006,937.99994 M800.00006,918.0L790.00006,928.0L790.00006,448.0009L800.00006,458.0009L320.00003,457.99997L330.00006,447.99997L330.00006,928.0009L320.00003,918.0009L800.00006,918.0 Z"/>
</g>
<g style="fill:rgb(0,0,0); fill-opacity:1.0; stroke-linejoin: miter">
<path d="M218.86707,-74.27102L218.86707,-74.27102L218.86707,-74.27005L198.86707,-74.27005L198.86707,-74.27102L218.86707,-74.27102L218.86707,-74.27005L198.86707,-74.27005L198.86707,-74.27102L218.86707,-74.27102 M198.86707,-74.27102C198.86707,-79.79387,203.34422,-84.27102,208.86707,-84.27102C214.38991,-84.27102,218.86707,-79.79387,218.86707,-74.27102L218.86707,-74.27102L218.86707,-74.27005C218.86707,-68.7472,214.38991,-64.27005,208.86707,-64.27005C203.34422,-64.27005,198.86707,-68.7472,198.86707,-74.27005L198.86707,-74.27005L198.86707,-74.27102C198.86707,-79.79387,203.34422,-84.27102,208.86707,-84.27102C214.38991,-84.27102,218.86707,-79.79387,218.86707,-74.27102L218.86707,-74.27102L218.86707,-74.27005C218.86707,-68.7472,214.38991,-64.27005,208.86707,-64.27005C203.34422,-64.27005,198.86707,-68.7472,198.86707,-74.27005L198.86707,-74.27005L198.86707,-74.27102 Z"/>
</g>
<g style="fill:rgb(0,0,0); fill-opacity:1.0; stroke-linejoin: miter">
<path d="M266.88306,-23.480585L266.88306,-23.480585L266.88306,-23.479834L246.88306,-23.47984L246.88306,-23.480589L266.88306,-23.480585L266.88306,-23.479834L246.88306,-23.47984L246.88306,-23.480589L266.88306,-23.480585 M246.88306,-23.480589C246.88306,-29.003435,251.36021,-33.480587,256.88306,-33.480583C262.4059,-33.480583,266.88306,-29.003431,266.88306,-23.480585L266.88306,-23.480585L266.88306,-23.479834C266.88306,-17.956987,262.4059,-13.479836,256.88306,-13.479837C251.36021,-13.479838,246.88306,-17.956991,246.88306,-23.47984L246.88306,-23.47984L246.88306,-23.480589C246.88306,-29.003435,251.36021,-33.480587,256.88306,-33.480583C262.4059,-33.480583,266.88306,-29.003431,266.88306,-23.480585L266.88306,-23.480585L266.88306,-23.479834C266.88306,-17.956987,262.4059,-13.479836,256.88306,-13.479837C251.36021,-13.479838,246.88306,-17.956991,246.88306,-23.47984L246.88306,-23.47984L246.88306,-23.480589 Z"/>
</g>
<g style="fill:rgb(10,197,207); fill-opacity:1.0; stroke-linejoin: miter">
<path d="M672.0,598.0C666.4772,598.0,662.0,602.4772,662.0,608.0L662.0,768.0C662.0,773.5228,666.4772,778.0,672.0,778.0C677.5228,778.0,682.0,773.5228,682.0,768.0L682.0,608.0C682.0,602.4772,677.5228,598.0,672.0,598.0 Z"/>
</g>
<g style="fill:rgb(10,197,207); fill-opacity:1.0; stroke-linejoin: miter">
<path d="M480.0,662.0C474.47714,662.0,470.0,666.4772,470.0,672.0L470.0,768.0C470.0,773.5228,474.47714,778.0,480.0,778.0C485.52286,778.0,490.0,773.5228,490.0,768.0L490.0,672.0C490.0,666.4772,485.52286,662.0,480.0,662.0 Z"/>
</g>
<g style="fill:rgb(10,197,207); fill-opacity:1.0; stroke-linejoin: miter">
<path d="M480.00006,630.0C474.4772,630.0,470.00003,634.4772,470.00003,640.0L470.0,656.0L470.0,800.0C470.0,805.5228,474.47714,810.0,480.0,810.0C485.52286,810.0,490.0,805.5228,490.0,800.0L490.0,656.0L490.00003,640.0C490.00003,634.4772,485.52292,630.0,480.00006,630.0 Z"/>
</g>
<g style="fill:rgb(10,197,207); fill-opacity:1.0; stroke-linejoin: miter">
<path d="M470.0,640.0L470.0,640.0L470.0,608.0C470.0,602.4772,474.4771,598.0,479.99997,598.0C485.52283,598.0,490.0,602.4772,490.0,608.0L490.0,608.0L490.0,640.0C490.0,645.5228,485.5229,650.0,480.00003,649.99994C474.47717,650.0,470.0,645.5228,470.0,640.0 Z"/>
</g>
<g style="fill:rgb(10,197,207); fill-opacity:1.0; stroke-linejoin: miter">
<path d="M512.0092,565.9997C511.81155,565.9997,511.61267,566.0055,511.41275,566.0173L504.69672,566.41235C504.2352,566.4395,503.77615,566.49866,503.3228,566.5893L497.39688,567.7745C496.8416,567.8855,496.29678,568.0435,495.76828,568.24677L490.63248,570.22205C490.01108,570.46106,489.41513,570.76154,488.85345,571.11896L484.50778,573.8844C483.89224,574.2761,483.3214,574.73395,482.8055,575.2499L479.24994,578.8054C478.734,579.32135,478.2761,579.89215,477.88437,580.50775L475.11893,584.85345C474.7615,585.4151,474.46106,586.0111,474.22208,586.6325L472.2468,591.7683C472.04352,592.2968,471.88553,592.8416,471.77448,593.39685L470.58926,599.32275C470.4986,599.7761,470.43945,600.23517,470.4123,600.6967L470.01724,607.4128C469.69293,612.9261,473.8995,617.65845,479.4128,617.9827C479.6127,617.9945,479.81155,618.0003,480.0092,618.0003C485.26346,618.0003,489.6702,613.90063,489.98276,608.5872L490.33704,602.5641L491.21918,598.1536L491.21918,598.1536L492.52957,594.74646L494.16824,592.1714L496.1715,590.1682L496.1715,590.1682L498.74622,588.5297L498.74622,588.5297L502.15384,587.2191L502.15384,587.2191L506.56427,586.33704L506.56427,586.33704L512.5872,585.9827C518.1005,585.6584,522.30707,580.9261,521.9827,575.4128C521.67017,570.09937,517.2635,565.9997,512.0092,565.9997 Z"/>
</g>
<g style="fill:rgb(10,197,207); fill-opacity:1.0; stroke-linejoin: miter">
<path d="M511.99997,566.0C506.4772,566.0,502.0001,570.47705,502.0,575.9998C501.9999,581.52264,506.47696,585.9999,511.99982,586.0L575.9998,586.0011C575.9999,586.0011,575.99994,586.0011,576.00006,586.0011C581.52277,586.0011,585.9999,581.52405,586.0,576.0013C586.0001,570.47845,581.523,566.0012,576.0002,566.0011L512.0002,566.0C512.0001,566.0,512.00006,566.0,511.99997,566.0 Z"/>
</g>
<g style="fill:rgb(10,197,207); fill-opacity:1.0; stroke-linejoin: miter">
<path d="M543.99994,566.0C538.47723,566.0,534.0001,570.47705,534.0,575.9998C533.9999,581.52264,538.477,585.9999,543.9998,586.0L607.9998,586.0011C607.9999,586.0011,607.99994,586.0011,608.00006,586.0011C613.52277,586.0011,617.9999,581.52405,618.0,576.0013C618.0001,570.47845,613.523,566.0012,608.0002,566.0011L544.0002,566.0C544.0001,566.0,544.00006,566.0,543.99994,566.0 Z"/>
</g>
<g style="fill:rgb(10,197,207); fill-opacity:1.0; stroke-linejoin: miter">
<path d="M607.9907,565.9997C602.7365,565.9997,598.32983,570.09937,598.0173,575.4128C597.69293,580.9261,601.8995,585.6584,607.4128,585.9827L613.4357,586.33704L613.4357,586.33704L617.84625,587.2191L617.84625,587.2191L621.25354,588.5296L621.25354,588.5296L623.82886,590.16846L623.82886,590.16846L625.83154,592.17114L627.4704,594.74646L628.7809,598.15375L629.66296,602.5643L630.0173,608.5872C630.32983,613.90063,634.7365,618.0003,639.9907,618.0003C640.1884,618.0003,640.3873,617.9945,640.5872,617.9827C646.1005,617.6584,650.30707,612.9261,649.9827,607.4128L649.58765,600.6967C649.5605,600.2352,649.50134,599.77606,649.4107,599.32275L648.2255,593.39685C648.1145,592.8416,647.9565,592.2968,647.75323,591.7683L645.77795,586.6325C645.53894,586.0111,645.2385,585.4151,644.8811,584.85345L642.11566,580.50775C641.72394,579.8922,641.266,579.3214,640.75006,578.8055L637.1945,575.24994C636.6786,574.734,636.1078,574.27606,635.49225,573.88434L631.14655,571.1189C630.5849,570.7615,629.9889,570.46106,629.3675,570.22205L624.2317,568.24677C623.7032,568.0435,623.1584,567.8855,622.60315,567.7745L616.67725,566.5893C616.22394,566.49866,615.7648,566.4395,615.3033,566.41235L608.5872,566.0173C608.3873,566.0055,608.1884,565.9997,607.9907,565.9997 Z"/>
</g>
<g style="fill:rgb(10,197,207); fill-opacity:1.0; stroke-linejoin: miter">
<path d="M640.0,598.0C634.4772,598.0,630.0,602.4772,630.0,608.0L630.0,735.99994C630.0,741.52277,634.4772,745.99994,640.0,745.99994C645.5228,745.99994,650.0,741.52277,650.0,735.99994L650.0,608.0C650.0,602.4772,645.5228,598.0,640.0,598.0 Z"/>
</g>
<g style="fill:rgb(10,197,207); fill-opacity:1.0; stroke-linejoin: miter">
<path d="M640.0,693.99994C634.4772,693.99994,630.0,698.4771,630.0,703.99994L630.0,767.99994C630.0,773.52277,634.4772,777.99994,640.0,777.99994C645.5228,777.99994,650.0,773.52277,650.0,767.99994L650.0,703.99994C650.0,698.4771,645.5228,693.99994,640.0,693.99994 Z"/>
</g>
<g style="fill:rgb(10,197,207); fill-opacity:1.0; stroke-linejoin: miter">
<path d="M630.0,800.0L630.0,800.0L629.99994,768.0C629.99994,762.4772,634.47705,757.99994,639.99994,758.0C645.52277,758.0,649.99994,762.4771,650.0,768.0L650.0,768.0L650.0,799.99994C650.0,805.52277,645.5229,809.99994,640.0,810.0C634.4772,810.0,630.0,805.52277,630.0,800.0 Z"/>
</g>
<g style="fill:rgb(0,0,0); fill-opacity:1.0; stroke-linejoin: miter">
<path d="M607.9907,661.99963C602.7365,661.99963,598.32983,666.0993,598.0173,671.4127L597.66296,677.43567L596.7809,681.8462L595.4704,685.2535L595.4704,685.2535L593.83154,687.8288L591.8287,689.83167L589.2538,691.4702L589.2538,691.4702L585.84625,692.7808L585.84625,692.7808L581.4357,693.6629L581.4357,693.6629L575.41284,694.01715C569.89954,694.34143,565.693,699.0737,566.0173,704.58704C566.3298,709.90045,570.7365,714.0002,575.9908,714.0002C576.1884,714.0002,576.38727,713.9944,576.58716,713.9826L583.3032,713.5876C583.7648,713.5604,584.2239,713.50134,584.67725,713.41064L590.60315,712.22546C591.15845,712.1144,591.70325,711.9564,592.2318,711.7531L597.3676,709.7778C597.98895,709.5388,598.58484,709.23834,599.1464,708.881L603.4921,706.1156C604.1077,705.7239,604.6786,705.2659,605.1945,704.75L608.75006,701.19446C609.266,700.6785,609.72394,700.1077,610.11566,699.4922L612.8811,695.1465C613.2385,694.58484,613.53894,693.98883,613.77795,693.36743L615.75323,688.2316C615.9565,687.7031,616.1145,687.1583,616.2255,686.6031L617.4107,680.6772C617.50134,680.2239,617.5605,679.7647,617.58765,679.3032L617.9827,672.58716C618.30707,667.07385,614.1005,662.34155,608.5872,662.0172C608.3873,662.00543,608.1884,661.99963,607.9907,661.99963 Z"/>
</g>
<g style="fill:rgb(10,197,207); fill-opacity:1.0; stroke-linejoin: miter">
<path d="M512.0092,661.9997C511.81155,661.9997,511.61267,662.0055,511.41275,662.0173L504.69672,662.41235C504.2352,662.4395,503.77615,662.49866,503.3228,662.5893L497.39688,663.7745C496.8416,663.8855,496.29678,664.0435,495.76828,664.24677L490.63248,666.22205C490.01108,666.46106,489.41513,666.76154,488.85345,667.11896L484.50778,669.8844C483.89224,670.2761,483.3214,670.73395,482.8055,671.2499L479.24994,674.8054C478.734,675.32135,478.27612,675.8922,477.8844,676.50775L475.11896,680.8534C474.7615,681.4151,474.46106,682.01105,474.22208,682.63245L472.2468,687.76825C472.04352,688.29675,471.88553,688.84155,471.77448,689.3968L470.58926,695.3227C470.4986,695.77606,470.43945,696.2351,470.4123,696.69666L470.01724,703.4127C469.69293,708.926,473.8995,713.6584,479.4128,713.98267C479.6127,713.99445,479.81155,714.00024,480.0092,714.00024C485.26346,714.00024,489.6702,709.9006,489.98276,704.58716L490.33704,698.564L490.33704,698.564L491.21918,694.15356L492.5296,690.74634L492.5296,690.74634L494.16815,688.1715L494.16815,688.1715L496.1715,686.1682L496.1715,686.1682L498.74622,684.5297L498.74622,684.5297L502.15384,683.2191L502.15384,683.2191L506.56427,682.33704L506.56427,682.33704L512.5872,681.9827C518.1005,681.6584,522.30707,676.9261,521.9827,671.4128C521.67017,666.09937,517.2635,661.9997,512.0092,661.9997 Z"/>
</g>
<g style="fill:rgb(10,197,207); fill-opacity:1.0; stroke-linejoin: miter">
<path d="M561.7777,661.99994L554.6666,662.0L512.0,662.0C506.47714,662.0,502.0,666.4772,502.0,672.0C502.0,677.5228,506.47714,682.0,512.0,682.0L554.66675,682.0L561.77783,681.99994L576.0,681.99994C581.5228,681.99994,586.0,677.52277,586.0,671.99994C586.0,666.4771,581.5228,661.99994,576.0,661.99994 Z"/>
</g>
<g style="fill:rgb(10,197,207); fill-opacity:1.0; stroke-linejoin: miter">
<path d="M480.00922,629.9997C479.81158,629.9997,479.61273,630.0055,479.41284,630.0173C473.89954,630.34155,469.69296,635.0739,470.01727,640.5872L470.41232,647.3033C470.43948,647.76483,470.4986,648.2239,470.58926,648.67725L471.77444,654.60315C471.8855,655.15845,472.04352,655.70325,472.2468,656.23175L474.2221,661.36755C474.4611,661.9889,474.76154,662.58484,475.11893,663.1465L477.88434,667.4922C478.27606,668.1078,478.73398,668.67865,479.24994,669.1946L482.8055,672.7501C483.3214,673.26605,483.89224,673.7239,484.50778,674.1156L488.85345,676.88104C489.41513,677.23846,490.01108,677.53894,490.63248,677.77795L495.76828,679.75323C496.29678,679.9565,496.8416,680.1145,497.39688,680.2255L503.3228,681.4107C503.77615,681.50134,504.2352,681.5605,504.69672,681.58765L511.41275,681.9827C511.61267,681.9945,511.81155,682.0003,512.0092,682.0003C517.2635,682.0003,521.67017,677.90063,521.9827,672.5872C522.30707,667.0739,518.1005,662.3416,512.5872,662.0173L506.56427,661.66296L506.56427,661.66296L502.15384,660.7809L502.15384,660.7809L498.74622,659.4703L496.1715,657.8318L496.1715,657.8318L494.16824,655.8286L492.52966,653.25366L491.2192,649.84644L490.33707,645.4357L489.9828,639.4128C489.67023,634.09937,485.2635,629.9997,480.00922,629.9997 Z"/>
</g>
<g style="fill:rgb(0,0,0); fill-opacity:1.0; stroke-linejoin: miter">
<path d="M575.9907,693.9996C570.7365,693.9996,566.32983,698.09924,566.0173,703.41266C565.69293,708.92596,569.8995,713.65826,575.4128,713.9826L581.4357,714.3369L581.4357,714.3369L585.84625,715.219L585.84625,715.219L589.2534,716.5295L589.2534,716.5295L591.82886,718.1684L593.83154,720.1711L595.4704,722.7464L596.7809,726.1537L597.66296,730.5642L598.0173,736.58716C598.32983,741.9006,602.7365,746.00024,607.9907,746.00024C608.1884,746.00024,608.3873,745.99445,608.5872,745.98267C614.1005,745.6583,618.30707,740.926,617.9827,735.4127L617.58765,728.69666C617.5605,728.23517,617.50134,727.776,617.4107,727.3227L616.2255,721.3968C616.1145,720.84155,615.9565,720.29675,615.75323,719.76825L613.77795,714.63245C613.53894,714.01105,613.2385,713.41504,612.8811,712.8534L610.11566,708.5077C609.72394,707.89215,609.266,707.32135,608.75006,706.8054L605.1945,703.2499C604.6786,702.73395,604.1078,702.276,603.49225,701.8843L599.14655,699.11884C598.5849,698.7614,597.98895,698.461,597.3676,698.22205L592.2318,696.2467C591.70325,696.0434,591.15845,695.88544,590.60315,695.77435L584.67725,694.5892C584.22394,694.49854,583.7648,694.4394,583.3033,694.41223L576.5872,694.01715C576.3873,694.0054,576.1884,693.9996,575.9907,693.9996 Z"/>
</g>
<g style="fill:rgb(0,0,0); fill-opacity:1.0; stroke-linejoin: miter">
<path d="M640.0,822.0C634.4772,822.0,630.0,826.4772,630.0,832.0C630.0,837.5228,634.4772,842.0,640.0,842.0Q658.9726,842.0,671.08344,848.05536L671.0834,848.05536Q674.78876,849.9081,677.8546,852.33496L677.84784,852.33496L681.1251,855.2673L696.92883,871.07104C698.8815,873.0237,701.4407,874.0,703.99994,874.0C706.55914,874.0,709.11835,873.0237,711.071,871.0711C714.97626,867.1659,714.97626,860.8342,711.07104,856.92896L695.0711,840.92896C694.94025,840.7981,694.8058,840.6709,694.6679,840.54755L690.9148,837.1895C690.77765,837.0668,690.6375,836.9483,690.49384,836.8333Q685.7159,833.0109,680.0277,830.1668L680.02765,830.1668Q663.6939,822.0,640.0,822.0 Z"/>
</g>
<g style="fill:rgb(0,0,0); fill-opacity:1.0; stroke-linejoin: miter">
<path d="M704.0,842.00006L704.0,842.00006L672.0,842.00006C666.4772,842.00006,662.00006,837.5228,662.0,832.0C662.00006,826.4772,666.4772,822.0,672.0,821.99994L672.0,821.99994L704.0,821.99994C709.5228,822.0,714.0,826.47723,714.0,832.0C714.0,837.5228,709.5228,842.0,704.0,842.00006 Z"/>
</g>
</g>
</svg>